HIERARCHY
ROOT RootJoint
{
    OFFSET   0.000000   0.000000   0.000000
    CHANNELS 6 Xposition Yposition Zposition Xrotation Yrotation Zrotation
    JOINT pelvis_lowerback
    {
        OFFSET   0.000000   0.093605   0.000000
        CHANNELS 3 Xrotation Yrotation Zrotation
        JOINT lowerback_torso
        {
            OFFSET   0.000000   0.100000   0.000000
            CHANNELS 3 Xrotation Yrotation Zrotation
            JOINT torso_head
            {
                OFFSET   0.000000   0.282350   0.000000
                CHANNELS 3 Xrotation Yrotation Zrotation
                End Site
                {
                    OFFSET   0.000000   0.192650   0.000000
                }
            }
            JOINT rTorso_Clavicle
            {
                OFFSET  -0.001000   0.157500   0.000000
                CHANNELS 3 Xrotation Yrotation Zrotation
                JOINT rShoulder
                {
                    OFFSET  -0.117647   0.000000   0.000000
                    CHANNELS 3 Xrotation Yrotation Zrotation
                    JOINT rElbow
                    {
                        OFFSET  -0.245000   0.000000   0.000000
                        CHANNELS 3 Xrotation Yrotation Zrotation
                        JOINT rWrist
                        {
                            OFFSET  -0.240000   0.000000   0.000000
                            CHANNELS 3 Xrotation Yrotation Zrotation
                            End Site
                            {
                                OFFSET  -0.116353  -0.002500   0.000000
                            }
                        }
                    }
                }
            }
            JOINT lTorso_Clavicle
            {
                OFFSET   0.001000   0.157500   0.000000
                CHANNELS 3 Xrotation Yrotation Zrotation
                JOINT lShoulder
                {
                    OFFSET   0.117647   0.000000   0.000000
                    CHANNELS 3 Xrotation Yrotation Zrotation
                    JOINT lElbow
                    {
                        OFFSET   0.245000   0.000000   0.000000
                        CHANNELS 3 Xrotation Yrotation Zrotation
                        JOINT lWrist
                        {
                            OFFSET   0.240000   0.000000   0.000000
                            CHANNELS 3 Xrotation Yrotation Zrotation
                            End Site
                            {
                                OFFSET   0.116353  -0.002500   0.000000
                            }
                        }
                    }
                }
            }
        }
    }
    JOINT rHip
    {
        OFFSET  -0.100000  -0.051395   0.000000
        CHANNELS 3 Xrotation Yrotation Zrotation
        JOINT rKnee
        {
            OFFSET   0.000000  -0.410000   0.000000
            CHANNELS 3 Xrotation Yrotation Zrotation
            JOINT rAnkle
            {
                OFFSET   0.000000  -0.390000   0.000000
                CHANNELS 3 Xrotation Yrotation Zrotation
                JOINT rToeJoint
                {
                    OFFSET   0.000000  -0.050000   0.130000
                    CHANNELS 3 Xrotation Yrotation Zrotation
                    End Site
                    {
                        OFFSET  -0.010000   0.002000   0.060000
                    }
                }
            }
        }
    }
    JOINT lHip
    {
        OFFSET   0.100000  -0.051395   0.000000
        CHANNELS 3 Xrotation Yrotation Zrotation
        JOINT lKnee
        {
            OFFSET   0.000000  -0.410000   0.000000
            CHANNELS 3 Xrotation Yrotation Zrotation
            JOINT lAnkle
            {
                OFFSET   0.000000  -0.390000   0.000000
                CHANNELS 3 Xrotation Yrotation Zrotation
                JOINT lToeJoint
                {
                    OFFSET   0.000000  -0.050000   0.130000
                    CHANNELS 3 Xrotation Yrotation Zrotation
                    End Site
                    {
                        OFFSET   0.010000   0.002000   0.060000
                    }
                }
            }
        }
    }
}
MOTION
Frames: 12
Frame Time:   0.008333
 -2.409978   0.925318   3.975483  -2.567591 -27.082569   0.579942  10.249164   4.574522  -0.853647   2.612437   0.676212  -0.996931  -0.206973  -2.858032  -1.835719   3.417833  -7.577474  -7.550340  10.577808   2.990847  51.763810 179.952740  73.225341 179.991875   2.883742   2.608339  -7.731960   7.116149   6.855219   0.381391  11.792598   2.744738 -53.187819  -0.001159 -59.670642   0.014637  -0.646704  -2.600054   9.528326  -6.474887  -2.314887  -3.591165  34.863612   0.000409  -0.025976   2.893419  -3.382119   2.033845 -45.717892   0.003541  -0.092519 -46.345346   2.993456   7.772088  86.763122   0.064148   0.055901  17.408911  -3.370895  -6.877889 -10.040546   0.028551   0.037718
 -2.410244   0.923063   3.974745  -2.807128 -27.103617   0.043220  10.618676   4.944832  -0.564557   2.569453   1.005524  -0.848564  -0.257147  -2.982527  -1.574253   2.974076  -7.304213  -7.596135   9.903498   3.128700  51.531466 179.952489  71.628224 179.997028   2.860756   2.718960  -7.683650   7.428024   7.352561   0.371627  12.467822   3.018814 -53.360553  -0.000953 -59.721275   0.011469  -0.808328  -1.941533   9.403582  -6.090582  -2.146049  -3.105647  34.867087   0.000335  -0.020775   1.463678  -2.962298   1.895825 -43.510540  -0.007520  -0.063151 -47.733660   2.882572   8.354396  89.110140   0.061736   0.046452  16.391926  -3.123416  -6.946527  -9.403874   0.025742   0.031964
 -2.410432   0.921345   3.974179  -2.992508 -27.133134  -0.398424  10.941488   5.301501  -0.348343   2.500475   1.331943  -0.733124  -0.310196  -3.104199  -1.339192   2.550952  -7.032527  -7.674371   9.263117   3.264138  51.301660 179.953342  70.137448 179.999933   2.837280   2.811616  -7.615335   7.717895   7.846251   0.435530  13.097849   3.278413 -53.502677  -0.001031 -59.819023   0.008551  -0.921701  -1.602999   9.306458  -5.743093  -1.971553  -2.700000  34.770081   0.000242  -0.016771   0.324113  -2.570705   1.734107 -41.671906  -0.012345  -0.041159 -49.036887   2.760434   8.848022  91.233823   0.057367   0.037923  15.437577  -2.889703  -7.005645  -8.839359   0.022759   0.026893
 -2.410541   0.919978   3.973785  -3.142277 -27.170297  -0.763694  11.227773   5.646023  -0.182665   2.421197   1.646564  -0.645498  -0.362288  -3.217909  -1.125804   2.149469  -6.773604  -7.777967   8.658276   3.391556  51.074984 179.955059  68.739414 -179.998640   2.818919   2.921898  -7.567532   7.982688   8.315185   0.539448  13.681129   3.526820 -53.613789  -0.001196 -59.920324   0.006150  -1.016115  -1.373517   9.261682  -5.410135  -1.797626  -2.364289  34.597374   0.000134  -0.013656  -0.645245  -2.216413   1.563951 -40.054976  -0.013847  -0.024968 -50.264065   2.639228   9.285013  93.207656   0.052266   0.030834  14.546219  -2.670200  -7.057112  -8.326596   0.019905   0.022619
 -2.410565   0.918855   3.973544  -3.263777 -27.215180  -1.065612  11.485027   5.974042  -0.053174   2.337199   1.944605  -0.579453  -0.412417  -3.323826  -0.930406   1.770491  -6.529742  -7.897193   8.089181   3.510449  50.854104 179.957457  67.429487 -179.998113   2.805546   3.049870  -7.542474   8.224612   8.756696   0.664340  14.221386   3.762750 -53.703265  -0.001366 -60.019348   0.004242  -1.101733  -1.188388   9.259158  -5.092545  -1.626449  -2.090049  34.376636   0.000019  -0.011190  -1.495003  -1.895525   1.393302 -38.603559  -0.013532  -0.013245 -51.418676   2.518123   9.683890  95.055259   0.046900   0.025168  13.714539  -2.464290  -7.101988  -7.858566   0.017258   0.019074
 -2.410499   0.917912   3.973442  -3.361431 -27.266430  -1.314362  11.718439   6.281897   0.050410   2.251979   2.223073  -0.529297  -0.460110  -3.422572  -0.750497   1.414829  -6.301823  -8.023818   7.555860   3.621163  50.641748 179.960348  66.203427 -179.998086   2.795781   3.188434  -7.534187   8.445849   9.170270   0.798025  14.722230   3.984784 -53.778690  -0.001503 -60.114772   0.002759  -1.181423  -1.029270   9.283841  -4.792715  -1.459153  -1.869502  34.127653  -0.000095  -0.009211  -2.253158  -1.603979   1.226278 -37.287145  -0.012266  -0.004915 -52.502124   2.395004  10.055826  96.786625   0.041552   0.020765  12.938706  -2.271173  -7.141067  -7.430707   0.014848   0.016158
 -2.410341   0.917104   3.973468  -3.438007 -27.322049  -1.517967  11.931618   6.567285   0.135725   2.167686   2.480180  -0.490344  -0.505123  -3.514727  -0.584172   1.082823  -6.090226  -8.151869   7.057907   3.724105  50.439822 179.963560  65.056875 -179.998313   2.788337   3.331083  -7.536282   8.648107   9.556061   0.932872  15.186650   4.192025 -53.845187  -0.001596 -60.206337   0.001629  -1.256099  -0.890112   9.323520  -4.512329  -1.296441  -1.695759  33.863592  -0.000204  -0.007604  -2.937892  -1.338471   1.065121 -36.084997  -0.010566   0.000870 -53.515949   2.268742  10.407633  98.408290   0.036418   0.017421  12.214960  -2.090075  -7.175032  -7.039309   0.012690   0.013766
 -2.410217   0.918276   3.973664  -3.504416 -27.353048  -1.594504  12.113858   6.756731   0.008745   2.124914   2.706512  -0.492268  -0.462892  -3.595816  -0.388575   0.914020  -5.882280  -8.291450   6.954434   3.895821  50.698287 179.967865  64.667095 -179.995786   2.781802   3.885392  -7.589247   8.860227  10.078498   1.094316  15.568354   4.394442 -53.982901  -0.005251 -61.334444  -0.006684  -1.398918  -0.142037   9.370754  -4.378733  -1.315895  -1.766488  33.564575  -0.000322  -0.005809  -2.275384  -0.845558   1.498638 -36.643650  -0.005996   0.000104 -53.896966   2.119251  10.528981  98.574247   0.029133   0.013897  11.578638  -1.728586  -7.165770  -6.795603   0.010010   0.011561
 -2.410044   0.920332   3.974029  -3.486595 -27.432805  -1.589830  12.209965   6.904167  -0.177773   2.080596   2.883819  -0.529675  -0.419361  -3.669385  -0.230140   0.840687  -5.743865  -8.390125   6.945170   4.040283  50.976458 179.972265  64.352668 -179.994577   2.718717   4.092970  -7.415961   9.041569  10.587512   1.295335  15.912471   4.562814 -54.129098  -0.007500 -62.467867  -0.012036  -1.480372   0.166518   9.397145  -4.322405  -1.373177  -1.865287  33.184654  -0.000283  -0.004078  -1.244831  -0.440948   1.587620 -37.613799  -0.003311  -0.001155 -54.087531   1.974864  10.614929  98.335306   0.023572   0.011141  10.967514  -1.384897  -7.151111  -6.591185   0.007690   0.009636
 -2.409792   0.922751   3.974508  -3.401037 -27.511751  -1.521092  12.254771   6.985215  -0.393464   2.019122   2.995074  -0.590973  -0.381801  -3.738063  -0.092524   0.800036  -5.658630  -8.497973   6.969544   4.156814  51.235679 179.976455  64.062502 -179.994389   2.641355   4.186960  -7.188188   9.199857  11.059649   1.524042  16.224651   4.714177 -54.254947  -0.008663 -63.546479  -0.014496  -1.534648   0.302612   9.424303  -4.287526  -1.346489  -2.007114  32.698275  -0.000514  -0.002813  -0.073589  -0.003109   1.674145 -38.678523  -0.000794  -0.003197 -54.215936   1.834118  10.673826  98.007627   0.019354   0.008917  10.392610  -1.062722  -7.133547  -6.407816   0.005800   0.008059
 -2.409464   0.925298   3.975053  -3.270410 -27.588518  -1.407207  12.273583   7.010656  -0.626389   1.944970   3.049448  -0.668961  -0.349498  -3.802809   0.030855   0.771037  -5.608743  -8.622017   7.005779   4.249930  51.468757 179.980300  63.789542 -179.994849   2.563899   4.250603  -6.981741   9.334034  11.489120   1.770426  16.503558   4.850943 -54.356912  -0.008939 -64.563820  -0.014767  -1.575405   0.363145   9.467212  -4.271187  -1.270991  -2.175449  32.157822  -0.000886  -0.001954   1.141853   0.448774   1.743647 -39.757358   0.001349  -0.005404 -54.314465   1.700138  10.726976  97.684215   0.016044   0.007076   9.855198  -0.761800  -7.114270  -6.239777   0.004289   0.006789
 -2.409061   0.927843   3.975640  -3.108393 -27.654929  -1.260966  12.277828   6.988379  -0.866508   1.863621   3.055594  -0.757456  -0.320780  -3.864064   0.142913   0.747147  -5.583858  -8.758975   7.046495   4.324055  51.676753 179.983722  63.532369 -179.995642   2.489670   4.305870  -6.814589   9.444365  11.875226   2.026160  16.749770   4.973052 -54.437871  -0.008525 -65.521267  -0.013562  -1.606828   0.376947   9.526109  -4.267971  -1.154465  -2.362754  31.589949  -0.001356  -0.001474   2.345348   0.908344   1.797905 -40.795227   0.003101  -0.007546 -54.395790   1.571254  10.779612  97.388703   0.013379   0.005543   9.353821  -0.480964  -7.093811  -6.084769   0.003098   0.005771
